<svg width="139" height="139" viewBox="0 0 139 139" fill="none" xmlns="http://www.w3.org/2000/svg">
<path d="M74.3361 18.3133C74.6586 18.0688 74.9452 17.7802 75.1875 17.4561H90.0257L90.2284 17.4503C91.2799 17.3969 92.3334 17.3969 93.3849 17.4503H93.605C96.9023 17.443 100.159 18.1732 103.138 19.5874C108.58 21.7215 113.288 25.3868 116.691 30.1398C119.267 33.7386 121.019 37.8602 121.824 42.2122C122.629 46.5642 122.466 51.04 121.347 55.322L102.345 36.5744C101.531 35.7723 100.435 35.3228 99.2924 35.3234H71.8109C70.8646 35.328 69.9449 35.6366 69.1873 36.2037L58.2758 44.4742C57.6897 44.9214 57.0212 45.2487 56.3084 45.4372C55.5957 45.6257 54.8528 45.6717 54.1223 45.5727C53.3917 45.4738 52.6878 45.2317 52.051 44.8603C51.4141 44.4889 50.8567 43.9956 50.4107 43.4086C49.9669 42.8314 49.6419 42.172 49.4542 41.4685C49.2666 40.7649 49.2202 40.0312 49.3177 39.3097C49.4151 38.5881 49.6546 37.8931 50.0221 37.2645C50.3896 36.636 50.878 36.0865 51.459 35.6477L74.3361 18.3133Z" fill="#254E58"/>
<path d="M45.7423 82.4502L45.667 82.5255L40.0259 88.1318L39.9507 88.2013C38.9628 89.1407 37.6481 89.6587 36.2849 89.6458C34.9218 89.6328 33.6172 89.0898 32.6474 88.1318C32.1628 87.6515 31.7782 87.08 31.5158 86.4503C31.2533 85.8206 31.1182 85.1451 31.1182 84.4628C31.1182 83.7806 31.2533 83.1051 31.5158 82.4753C31.7782 81.8456 32.1628 81.2741 32.6474 80.7938L38.2884 75.1875C39.271 74.2145 40.5979 73.6687 41.9806 73.6687C43.3634 73.6687 44.6903 74.2145 45.6728 75.1875C46.6378 76.1453 47.1863 77.445 47.1993 78.8046C47.2123 80.1642 46.6888 81.4741 45.7423 82.4502Z" fill="#254E58"/>
<path d="M44.0625 92.2844C43.1168 93.2613 42.5943 94.5717 42.6084 95.9313C42.6225 97.2909 43.172 98.5901 44.1378 99.5472C46.1765 101.574 49.4777 101.574 51.5222 99.5472L57.1633 93.9466C57.7112 93.4044 58.1308 92.7463 58.3913 92.0208C58.6518 91.2953 58.7467 90.5207 58.669 89.7537C58.5912 88.9868 58.3428 88.247 57.942 87.5885C57.5411 86.93 56.998 86.3696 56.3524 85.9483C55.3629 85.2972 54.1822 85.0001 53.0023 85.1053C51.8225 85.2104 50.713 85.7117 49.8542 86.5275L49.7789 86.6086L44.1378 92.2091L44.0625 92.2844Z" fill="#254E58"/>
<path d="M31.854 66.0713C32.3385 66.5516 32.7231 67.1232 32.9856 67.7529C33.248 68.3826 33.3832 69.0581 33.3832 69.7404C33.3832 70.4226 33.248 71.0981 32.9856 71.7278C32.7231 72.3576 32.3385 72.9291 31.854 73.4094L26.2187 79.0157C25.2359 79.9905 23.9078 80.5374 22.5236 80.5374C21.1394 80.5374 19.8113 79.9905 18.8285 79.0157C18.344 78.5354 17.9594 77.9639 17.6969 77.3342C17.4344 76.7044 17.2993 76.0289 17.2993 75.3467C17.2993 74.6645 17.4344 73.989 17.6969 73.3592C17.9594 72.7295 18.344 72.158 18.8285 71.6777L24.4754 66.0713C25.4579 65.0984 26.7848 64.5526 28.1676 64.5526C29.5503 64.5526 30.8772 65.0984 31.8598 66.0713H31.854Z" fill="#254E58"/>
<path d="M68.6541 98.024C69.1386 98.5043 69.5232 99.0758 69.7856 99.7055C70.0481 100.335 70.1832 101.011 70.1832 101.693C70.1832 102.375 70.0481 103.051 69.7856 103.68C69.5232 104.31 69.1386 104.882 68.6541 105.362L63.013 110.968C62.0334 111.947 60.7054 112.497 59.3208 112.497C57.9362 112.497 56.6082 111.947 55.6286 110.968C54.8593 110.206 54.3492 109.22 54.1704 108.152C53.9917 107.084 54.1533 105.986 54.6324 105.015L54.6382 105.003C54.8908 104.494 55.2254 104.03 55.6286 103.63L61.2697 98.024C62.2522 97.051 63.5791 96.5052 64.9619 96.5052C66.3446 96.5052 67.6715 97.051 68.6541 98.024Z" fill="#254E58"/>
<path d="M30.9506 27.9795C34.7962 24.159 39.4594 21.262 44.5883 19.5072C49.7172 17.7525 55.1777 17.1858 60.5576 17.8499L46.2117 28.7267C44.718 29.8567 43.4626 31.2711 42.5178 32.8883C41.573 34.5056 40.9574 36.2937 40.7066 38.1499C40.4557 40.006 40.5745 41.8934 41.0561 43.7034C41.5377 45.5134 42.3726 47.2103 43.5127 48.6963C45.8147 51.6968 49.2098 53.6651 52.9575 54.1718C56.7051 54.6785 60.5011 53.6825 63.5172 51.401L73.2703 44.0167H97.5085L117.82 64.0558C117.885 64.1366 117.955 64.2139 118.028 64.2875L124.689 70.9479C126.187 72.467 127.046 74.5029 127.088 76.6362C127.13 78.7694 126.352 80.8376 124.914 82.4145C123.477 83.9913 121.49 84.9569 119.362 85.1123C117.234 85.2676 115.127 84.6009 113.476 83.2494L112.92 82.6934C112.812 82.5841 112.696 82.4834 112.573 82.3923L106.242 76.0677C105.975 75.7912 105.656 75.5706 105.302 75.4188C104.949 75.267 104.569 75.1871 104.185 75.1838C103.8 75.1805 103.419 75.2537 103.063 75.3993C102.707 75.5449 102.384 75.76 102.112 76.0319C101.84 76.3038 101.625 76.6271 101.479 76.983C101.334 77.3389 101.26 77.7202 101.264 78.1047C101.267 78.4892 101.347 78.8692 101.499 79.2225C101.65 79.5758 101.871 79.8953 102.148 80.1625L108.808 86.8229C109.051 87.0603 109.295 87.292 109.549 87.5121L109.804 87.7669C110.829 88.8897 111.382 90.3643 111.347 91.8841C111.312 93.4039 110.693 94.8518 109.618 95.9267C108.543 97.0017 107.095 97.6208 105.576 97.6555C104.056 97.6901 102.581 97.1375 101.458 96.1127L100.474 95.1339C100.065 94.7266 99.5446 94.4505 98.9782 94.3411C98.4118 94.2316 97.8257 94.2938 97.2949 94.5197C96.7641 94.7456 96.3129 95.1248 95.9991 95.6088C95.6853 96.0928 95.5231 96.6595 95.5335 97.2363C95.5247 97.628 95.5957 98.0173 95.742 98.3807C95.8884 98.7441 96.1071 99.074 96.3849 99.3502L97.6764 100.642C98.2087 101.143 98.6349 101.746 98.9298 102.415C99.2247 103.084 99.3824 103.805 99.3933 104.536C99.4043 105.267 99.2685 105.993 98.9938 106.67C98.7191 107.348 98.3113 107.963 97.7943 108.48C97.2774 108.997 96.6619 109.405 95.9845 109.679C95.307 109.954 94.5812 110.09 93.8503 110.079C93.1193 110.068 92.398 109.91 91.7291 109.615C91.0602 109.321 90.4573 108.894 89.9561 108.362H89.9445L89.8808 108.287L88.6646 107.071C88.3974 106.794 88.0779 106.573 87.7246 106.422C87.3713 106.27 86.9913 106.19 86.6068 106.187C86.2223 106.183 85.841 106.257 85.4851 106.402C85.1292 106.548 84.8059 106.763 84.534 107.035C84.2621 107.307 84.0471 107.63 83.9015 107.986C83.7558 108.342 83.6826 108.723 83.6859 109.107C83.6893 109.492 83.7691 109.872 83.9209 110.225C84.0727 110.579 84.2933 110.898 84.5699 111.165L85.8325 112.434C86.3523 112.947 86.7659 113.558 87.0498 114.231C87.3336 114.904 87.482 115.627 87.4866 116.357C87.4911 117.088 87.3518 117.812 87.0764 118.489C86.801 119.166 86.3951 119.782 85.8817 120.302C85.3683 120.821 84.7575 121.235 84.0843 121.519C83.4111 121.803 82.6885 121.951 81.9579 121.956C81.2273 121.96 80.5029 121.821 79.8262 121.546C79.1494 121.27 78.5336 120.864 78.0137 120.351L69.7258 112.474L72.7607 109.451C73.784 108.436 74.5963 107.229 75.1506 105.899C75.705 104.569 75.9904 103.143 75.9904 101.702C75.9904 100.261 75.705 98.834 75.1506 97.504C74.5963 96.1739 73.784 94.9669 72.7607 93.9524C71.6785 92.8757 70.3848 92.0352 68.9612 91.4839C67.5377 90.9326 66.0153 90.6826 64.4902 90.7496C64.5577 89.2299 64.306 87.7129 63.7514 86.2964C63.1968 84.8799 62.3515 83.5953 61.27 82.5255C60.1873 81.4498 58.8934 80.6103 57.4698 80.0601C56.0463 79.5098 54.5242 79.2607 52.9995 79.3285C53.0659 77.8097 52.8136 76.2939 52.259 74.8785C51.7044 73.4631 50.8598 72.1795 49.7793 71.1101C48.4035 69.7433 46.693 68.7618 44.8187 68.2638C42.9445 67.7657 40.9723 67.7686 39.0995 68.2722C38.7764 65.891 37.6748 63.6837 35.9662 61.994C34.0609 60.1054 31.5353 58.9719 28.8578 58.8036C26.1804 58.6354 23.5328 59.4438 21.406 61.0789C20.0388 55.2068 20.1983 49.0823 21.8691 43.2893C23.5399 37.4962 26.6664 32.2275 30.9506 27.9853V27.9795Z" fill="#254E58"/>
</svg>
